<?xml version="1.0" encoding="UTF-8"?>
<svg xmlns="http://www.w3.org/2000/svg" xmlns:xlink="http://www.w3.org/1999/xlink" version="1.1" width="512" height="512" x="0" y="0" viewBox="0 0 511.997 511.997" style="enable-background:new 0 0 512 512" xml:space="preserve">
  <g>
    <path d="M101.765 397.609v42.551c0 27.358 22.257 49.615 49.615 49.615h26.736v-12.324zM178.174 332.508l-.027-196.583c-.002-12.623 4.912-24.492 13.838-33.419 8.926-8.928 20.794-13.844 33.418-13.844h.998c12.886 0 25 5.017 34.111 14.125 9.112 9.111 14.13 21.227 14.126 34.114-.004 13.895-.006 30.957-.009 48.813 22.863-9.908 51.021 1.349 61.348 23.066 10.763-6.177 25.374-7.78 37.439-3.908V49.616C373.416 22.258 351.159 0 323.801 0H151.38c-27.358 0-49.615 22.258-49.615 49.616V276.65c13.023 1.588 25.177 7.281 34.823 16.427z" fill="#ffffff" opacity="1" data-original="#000000"/>
    <path d="M377.512 303.939v-52.954c-1.004-24.18-35.45-24.163-36.444 0v52.956h-30v-73.605c-.996-24.006-35.028-24.236-36.441-.312l-.003 73.917h-30l.003-74.109c.002-31.938.005-67.676.012-92.938a18.106 18.106 0 0 0-5.338-12.891 18.122 18.122 0 0 0-12.899-5.341h-.998a17.145 17.145 0 0 0-12.203 5.055 17.143 17.143 0 0 0-5.053 12.203l.033 238.69-15.944 12.464-76.289-72.228c-11.476-11.294-31.237-11.48-42.942-.429l-4.962 4.521 140.074 146.478v46.581h204.271l31.567-79.959-.002-157.507c-.001-10.045-8.174-18.218-18.22-18.218h-.996c-9.496 0-17.222 7.726-17.223 17.222l-.003 30.407z" fill="#ffffff" opacity="1" data-original="#000000"/>
  </g>
</svg>
