<?xml version="1.0" encoding="UTF-8"?>
<svg xmlns="http://www.w3.org/2000/svg" xmlns:xlink="http://www.w3.org/1999/xlink" version="1.1" width="512" height="512" x="0" y="0" viewBox="0 0 512 512" style="enable-background:new 0 0 512 512" xml:space="preserve">
  <g>
    <path d="M76 361h45v30h30V181h-30v30H91v-15c0-90.981 74.019-166 165-166s165 75.019 165 166v15h-30v-30h-30v210h30v-30h30v45c0 24.814-20.186 46-45 46h-77.763c-6.213-17.422-22.707-30-42.237-30-24.814 0-45 20.186-45 45s20.186 45 45 45c19.53 0 36.024-12.578 42.237-30H376c41.353 0 75-34.647 75-76v-47.763c17.422-6.213 30-22.707 30-42.237v-60c0-19.53-12.578-36.024-30-42.237V196C451 88.48 363.52 0 256 0S61 88.48 61 196v17.763C43.578 219.976 31 236.47 31 256v60c0 24.814 20.186 45 45 45z" fill="#ffffff" opacity="1" data-original="#000000"/>
  </g>
</svg>
