<?xml version="1.0" encoding="UTF-8"?>
<svg xmlns="http://www.w3.org/2000/svg" xmlns:xlink="http://www.w3.org/1999/xlink" version="1.1" width="512" height="512" x="0" y="0" viewBox="0 0 428.327 428.327" style="enable-background:new 0 0 512 512" xml:space="preserve">
  <g>
    <path d="M393.884 110.375c-.512-11.264-.512-22.016-.512-32.768 0-8.483-6.877-15.36-15.36-15.36-64 0-112.64-18.432-153.088-57.856-5.973-5.854-15.531-5.854-21.504 0-40.448 39.424-89.088 57.856-153.088 57.856-8.483 0-15.36 6.877-15.36 15.36 0 10.752 0 21.504-.512 32.768-2.048 107.52-5.12 254.976 174.592 316.928l5.12 1.024 5.12-1.024c179.2-61.952 176.64-208.896 174.592-316.928zm-192 148.992a15.361 15.361 0 0 1-10.752 4.096h-.512a15.36 15.36 0 0 1-10.752-5.12l-47.616-52.736 23.04-20.48 37.376 41.472 82.944-78.848 20.992 22.528-94.72 89.088z" fill="#ffffff" opacity="1" data-original="#000000"/>
  </g>
</svg>
